<svg width="400" height="260" viewBox="0 0 400 260" xmlns="http://www.w3.org/2000/svg">
  <rect x="1" y="1" width="398" height="258" rx="16" fill="#ffffff" stroke="#000000" stroke-width="2"/>
  <g transform="translate(100,70)" stroke="#000000" stroke-width="3" fill="none" stroke-linejoin="round" stroke-linecap="round">
    <path d="M40 0 H160 C182 0 200 18 200 40 V50 C200 72 182 90 160 90 H140 L120 70 H80 L60 90 H40 C18 90 0 72 0 50 V40 C0 18 18 0 40 0 Z"/>
    <line x1="42" y1="45" x2="42" y2="45" stroke-width="10"/>
    <line x1="30" y1="45" x2="54" y2="45"/>
    <line x1="42" y1="33" x2="42" y2="57"/>
    <circle cx="150" cy="35" r="6" fill="#000000" stroke="none"/>
    <circle cx="170" cy="55" r="6" fill="#000000" stroke="none"/>
  </g>
  <text x="200" y="216" text-anchor="middle" font-family="'Fira Code', monospace" font-size="16" font-weight="bold" fill="#000000">JOGOS</text>
</svg>
